Television Favorites DVD Rip, 6 episodes.

1. Pilot (Season 1, Debut Episode)

2. Rules of the House (Season 1)

3. J.T.`s World (Season 2)

4. Christmas Story (Season 3)

5. I`ll Be Home for Christmas (Season 4)

6. Your Cheatin` Heart (Season 7)

Complete name                            : L:Step By StepEpisode 1.m4v
Format                                   : MPEG-4
Format profile                           : Base Media / Version 2
Codec ID                                 : mp42
File size                                : 348 MiB
Duration                                 : 23mn 18s
Overall bit rate                         : 2 088 Kbps

ID                                       : 1
Format                                   : AVC
Format/Info                              : Advanced Video Codec
Format profile                           : Main@L3.0
Format settings, CABAC                   : Yes
Format settings, ReFrames                : 4 frames
Codec ID                                 : avc1
Codec ID/Info                            : Advanced Video Coding
Duration                                 : 23mn 18s
Bit rate mode                            : Variable
Bit rate                                 : 1 893 Kbps
Width                                    : 702 pixels
Height                                   : 480 pixels
Display aspect ratio                     : 1.300
Frame rate mode                          : Variable
Frame rate                               : 29.970 fps
Minimum frame rate                       : 9.990 fps
Maximum frame rate                       : 29.970 fps
Color space                              : YUV
Chroma subsampling                       : 4:2:0
Bit depth                                : 8 bits
Scan type                                : Progressive
Bits/(Pixel*Frame)                       : 0.187
Stream size                              : 316 MiB (91%)
Writing library                          : x264 core 120

ID                                       : 2
Format                                   : AC-3
Format/Info                              : Audio Coding 3
Mode extension                           : CM (complete main)
Format settings, Endianness              : Big
Codec ID                                 : ac-3
Duration                                 : 23mn 17s
Bit rate mode                            : Constant
Bit rate                                 : 192 Kbps
Channel(s)                               : 2 channels
Channel positions                        : Front: L R
Sampling rate                            : 48.0 KHz
Bit depth                                : 16 bits
Compression mode                         : Lossy
Delay relative to video                  : -133ms
Stream size                              : 32.0 MiB (9%)
Language                                 : English





